<?xml version="1.0" encoding="UTF-8"?>
<!DOCTYPE svg PUBLIC "-//W3C//DTD SVG 1.1//EN" "http://www.w3.org/Graphics/SVG/1.1/DTD/svg11.dtd">
<svg version="1.1" xmlns="http://www.w3.org/2000/svg" xmlns:xlink="http://www.w3.org/1999/xlink" x="0" y="0" width="1512" height="520" viewBox="0, 0, 1512, 520">
  <defs>
    <clipPath id="Clip_1">
      <path d="M0,0 L1512,0 L1512,504 L0,504 z"/>
    </clipPath>
    <clipPath id="Clip_2">
      <path d="M0,0 L1512,0 L1512,504 L0,504 z"/>
    </clipPath>
    <clipPath id="Clip_3">
      <path d="M0,0 L1512,0 L1512,504 L0,504 z"/>
    </clipPath>
    <clipPath id="Clip_4">
      <path d="M0,0 L1512,0 L1512,504 L0,504 z"/>
    </clipPath>
    <clipPath id="Clip_5">
      <path d="M0,0 L1512,0 L1512,504 L0,504 z"/>
    </clipPath>
    <clipPath id="Clip_6">
      <path d="M0,0 L1512,0 L1512,504 L0,504 z"/>
    </clipPath>
    <clipPath id="Clip_7">
      <path d="M0,0 L1512,0 L1512,504 L0,504 z"/>
    </clipPath>
    <clipPath id="Clip_8">
      <path d="M0,0 L1512,0 L1512,504 L0,504 z"/>
    </clipPath>
    <clipPath id="Clip_9">
      <path d="M0,0 L1512,0 L1512,504 L0,504 z"/>
    </clipPath>
    <clipPath id="Clip_10">
      <path d="M0,0 L1512,0 L1512,504 L0,504 z"/>
    </clipPath>
    <clipPath id="Clip_11">
      <path d="M0,0 L1512,0 L1512,504 L0,504 z"/>
    </clipPath>
    <clipPath id="Clip_12">
      <path d="M0,0 L1512,0 L1512,504 L0,504 z"/>
    </clipPath>
    <clipPath id="Clip_13">
      <path d="M0,0 L1512,0 L1512,504 L0,504 z"/>
    </clipPath>
    <clipPath id="Clip_14">
      <path d="M0,0 L1512,0 L1512,504 L0,504 z"/>
    </clipPath>
    <clipPath id="Clip_15">
      <path d="M0,0 L1512,0 L1512,504 L0,504 z"/>
    </clipPath>
    <clipPath id="Clip_16">
      <path d="M0,0 L1512,0 L1512,504 L0,504 z"/>
    </clipPath>
    <clipPath id="Clip_17">
      <path d="M0,0 L1512,0 L1512,504 L0,504 z"/>
    </clipPath>
    <clipPath id="Clip_18">
      <path d="M0,0 L1512,0 L1512,504 L0,504 z"/>
    </clipPath>
    <clipPath id="Clip_19">
      <path d="M0,0 L1512,0 L1512,504 L0,504 z"/>
    </clipPath>
    <clipPath id="Clip_20">
      <path d="M0,0 L1512,0 L1512,504 L0,504 z"/>
    </clipPath>
    <clipPath id="Clip_21">
      <path d="M0,0 L1512,0 L1512,504 L0,504 z"/>
    </clipPath>
    <clipPath id="Clip_22">
      <path d="M0,0 L1512,0 L1512,504 L0,504 z"/>
    </clipPath>
    <clipPath id="Clip_23">
      <path d="M0,0 L1512,0 L1512,504 L0,504 z"/>
    </clipPath>
    <clipPath id="Clip_24">
      <path d="M0,0 L1512,0 L1512,504 L0,504 z"/>
    </clipPath>
    <clipPath id="Clip_25">
      <path d="M0,0 L1512,0 L1512,504 L0,504 z"/>
    </clipPath>
    <clipPath id="Clip_26">
      <path d="M0,0 L1512,0 L1512,504 L0,504 z"/>
    </clipPath>
    <clipPath id="Clip_27">
      <path d="M-76,140 L1436,140 L1436,644 L-76,644 z"/>
    </clipPath>
    <clipPath id="Clip_28">
      <path d="M-76,140 L1436,140 L1436,644 L-76,644 z"/>
    </clipPath>
    <clipPath id="Clip_29">
      <path d="M-76,140 L1436,140 L1436,644 L-76,644 z"/>
    </clipPath>
    <clipPath id="Clip_30">
      <path d="M-76,140 L1436,140 L1436,644 L-76,644 z"/>
    </clipPath>
    <clipPath id="Clip_31">
      <path d="M-76,140 L1436,140 L1436,644 L-76,644 z"/>
    </clipPath>
    <clipPath id="Clip_32">
      <path d="M-76,141 L1436,141 L1436,645 L-76,645 z"/>
    </clipPath>
  </defs>
  <g id="Layer_1">
    <g>
      <path d="M0,0 L1,0 L1,1 L0,1 z" fill="#FFFFFF"/>
      <path d="M0,0 L1,0 L1,1 L0,1 z" fill-opacity="0" stroke="#000000" stroke-width="1" stroke-linecap="round" stroke-linejoin="round" stroke-miterlimit="10"/>
    </g>
    <g>
      <path d="M0,0 L504,0 L504,504 L0,504 z" fill="#FFFFFF"/>
      <path d="M0,0 L504,0 L504,504 L0,504 z" fill-opacity="0" stroke="#FFFFFF" stroke-width="1" stroke-linecap="round" stroke-linejoin="round" stroke-miterlimit="10"/>
    </g>
    <path d="M441.34,5.48 L441.34,471.26 L36.18,471.26 L36.18,5.48 L441.34,5.48 z" fill="#FFFFFF"/>
    <path d="M54.59,238.37 L58.31,238.37 L62.03,238.37 L65.75,238.37 L69.47,238.37 L73.2,238.37 L76.92,238.37 L80.64,238.37 L84.36,238.37 L88.08,238.37 L91.8,238.37 L95.52,238.37 L99.24,238.37 L102.96,238.37 L106.68,238.37 L110.4,238.37 L114.12,238.37 L117.84,238.37 L121.56,238.37 L125.28,238.37 L129,238.37 L132.72,238.37 L136.44,238.37 L140.16,238.37 L143.88,238.37 L147.6,238.37 L151.32,238.37 L155.05,238.37 L158.77,238.37 L162.49,238.37 L166.21,238.37 L169.93,238.37 L173.65,238.37 L177.37,238.37 L181.09,238.37 L184.81,238.37 L188.53,238.37 L192.25,238.37 L195.97,238.37 L199.69,238.37 L203.41,238.37 L207.13,238.37 L210.85,238.37 L214.57,238.37 L218.29,238.37 L222.01,238.37 L225.73,238.37 L229.45,238.37 L233.17,238.37 L236.89,238.37 L240.62,238.37 L244.34,238.37 L248.06,238.37 L251.78,238.37 L255.5,238.37 L259.22,238.37 L262.94,238.37 L266.66,238.37 L270.38,238.37 L274.1,238.37 L277.82,238.37 L281.54,238.37 L285.26,238.37 L288.98,238.37 L292.7,238.37 L296.42,238.37 L300.14,238.37 L303.86,238.37 L307.58,238.37 L311.3,238.37 L315.02,238.37 L318.74,238.37 L322.47,238.37 L326.19,238.37 L329.91,238.37 L333.63,238.37 L337.35,238.37 L341.07,238.37 L344.79,238.37 L348.51,238.37 L352.23,238.37 L355.95,238.37 L359.67,238.37 L363.39,238.37 L367.11,238.37 L370.83,238.37 L374.55,238.37 L378.27,238.37 L381.99,238.37 L385.71,238.37 L389.43,238.37 L393.15,238.37 L396.87,238.37 L400.59,238.37 L404.31,238.37 L408.04,238.37 L411.76,238.37 L415.48,238.37 L419.2,238.37 L422.92,238.37" fill-opacity="0" stroke="#F8766D" stroke-width="1" stroke-linejoin="round" stroke-miterlimit="10"/>
    <path d="M54.59,280.71 L58.31,280 L62.03,279.29 L65.75,278.57 L69.47,277.83 L73.2,277.1 L76.92,276.35 L80.64,275.6 L84.36,274.84 L88.08,274.07 L91.8,273.29 L95.52,272.51 L99.24,271.72 L102.96,270.92 L106.68,270.12 L110.4,269.31 L114.12,268.49 L117.84,267.66 L121.56,266.83 L125.28,266 L129,265.16 L132.72,264.31 L136.44,263.45 L140.16,262.59 L143.88,261.73 L147.6,260.85 L151.32,259.98 L155.05,259.1 L158.77,258.21 L162.49,257.32 L166.21,256.43 L169.93,255.53 L173.65,254.62 L177.37,253.71 L181.09,252.8 L184.81,251.89 L188.53,250.97 L192.25,250.05 L195.97,249.13 L199.69,248.2 L203.41,247.27 L207.13,246.34 L210.85,245.41 L214.57,244.47 L218.29,243.53 L222.01,242.6 L225.73,241.66 L229.45,240.72 L233.17,239.78 L236.89,238.84 L240.62,237.9 L244.34,236.96 L248.06,236.02 L251.78,235.08 L255.5,234.14 L259.22,233.2 L262.94,232.27 L266.66,231.33 L270.38,230.4 L274.1,229.47 L277.82,228.54 L281.54,227.61 L285.26,226.69 L288.98,225.77 L292.7,224.85 L296.42,223.93 L300.14,223.02 L303.86,222.11 L307.58,221.21 L311.3,220.31 L315.02,219.42 L318.74,218.53 L322.47,217.64 L326.19,216.76 L329.91,215.88 L333.63,215.01 L337.35,214.14 L341.07,213.28 L344.79,212.43 L348.51,211.58 L352.23,210.74 L355.95,209.9 L359.67,209.07 L363.39,208.25 L367.11,207.43 L370.83,206.62 L374.55,205.82 L378.27,205.02 L381.99,204.23 L385.71,203.45 L389.43,202.67 L393.15,201.9 L396.87,201.14 L400.59,200.39 L404.31,199.64 L408.04,198.9 L411.76,198.17 L415.48,197.45 L419.2,196.73 L422.92,196.02" fill-opacity="0" stroke="#B79F00" stroke-width="1" stroke-linejoin="round" stroke-miterlimit="10"/>
    <path d="M54.59,323.05 L58.31,321.64 L62.03,320.21 L65.75,318.76 L69.47,317.3 L73.2,315.82 L76.92,314.33 L80.64,312.82 L84.36,311.3 L88.08,309.76 L91.8,308.21 L95.52,306.65 L99.24,305.07 L102.96,303.47 L106.68,301.87 L110.4,300.24 L114.12,298.61 L117.84,296.96 L121.56,295.3 L125.28,293.63 L129,291.94 L132.72,290.24 L136.44,288.54 L140.16,286.82 L143.88,285.08 L147.6,283.34 L151.32,281.59 L155.05,279.83 L158.77,278.05 L162.49,276.27 L166.21,274.48 L169.93,272.68 L173.65,270.88 L177.37,269.06 L181.09,267.24 L184.81,265.41 L188.53,263.57 L192.25,261.73 L195.97,259.88 L199.69,258.03 L203.41,256.17 L207.13,254.31 L210.85,252.44 L214.57,250.57 L218.29,248.7 L222.01,246.83 L225.73,244.95 L229.45,243.07 L233.17,241.19 L236.89,239.31 L240.62,237.43 L244.34,235.55 L248.06,233.67 L251.78,231.79 L255.5,229.91 L259.22,228.04 L262.94,226.16 L266.66,224.29 L270.38,222.43 L274.1,220.56 L277.82,218.71 L281.54,216.85 L285.26,215.01 L288.98,213.16 L292.7,211.33 L296.42,209.5 L300.14,207.68 L303.86,205.86 L307.58,204.05 L311.3,202.25 L315.02,200.46 L318.74,198.68 L322.47,196.91 L326.19,195.15 L329.91,193.39 L333.63,191.65 L337.35,189.92 L341.07,188.2 L344.79,186.49 L348.51,184.79 L352.23,183.11 L355.95,181.44 L359.67,179.77 L363.39,178.13 L367.11,176.49 L370.83,174.87 L374.55,173.26 L378.27,171.67 L381.99,170.09 L385.71,168.52 L389.43,166.97 L393.15,165.43 L396.87,163.91 L400.59,162.4 L404.31,160.91 L408.04,159.44 L411.76,157.97 L415.48,156.53 L419.2,155.1 L422.92,153.68" fill-opacity="0" stroke="#00BA38" stroke-width="1" stroke-linejoin="round" stroke-miterlimit="10"/>
    <path d="M54.59,365.4 L58.31,363.28 L62.03,361.13 L65.75,358.96 L69.47,356.77 L73.2,354.55 L76.92,352.31 L80.64,350.05 L84.36,347.77 L88.08,345.46 L91.8,343.14 L95.52,340.79 L99.24,338.42 L102.96,336.03 L106.68,333.61 L110.4,331.18 L114.12,328.73 L117.84,326.26 L121.56,323.77 L125.28,321.26 L129,318.73 L132.72,316.18 L136.44,313.62 L140.16,311.04 L143.88,308.44 L147.6,305.83 L151.32,303.2 L155.05,300.56 L158.77,297.9 L162.49,295.22 L166.21,292.54 L169.93,289.84 L173.65,287.13 L177.37,284.41 L181.09,281.67 L184.81,278.93 L188.53,276.17 L192.25,273.41 L195.97,270.64 L199.69,267.86 L203.41,265.07 L207.13,262.28 L210.85,259.48 L214.57,256.68 L218.29,253.87 L222.01,251.05 L225.73,248.24 L229.45,245.42 L233.17,242.6 L236.89,239.78 L240.62,236.96 L244.34,234.14 L248.06,231.32 L251.78,228.5 L255.5,225.68 L259.22,222.87 L262.94,220.06 L266.66,217.26 L270.38,214.46 L274.1,211.66 L277.82,208.88 L281.54,206.1 L285.26,203.32 L288.98,200.56 L292.7,197.81 L296.42,195.06 L300.14,192.33 L303.86,189.61 L307.58,186.9 L311.3,184.2 L315.02,181.51 L318.74,178.84 L322.47,176.18 L326.19,173.54 L329.91,170.91 L333.63,168.29 L337.35,165.7 L341.07,163.12 L344.79,160.55 L348.51,158.01 L352.23,155.48 L355.95,152.97 L359.67,150.48 L363.39,148.01 L367.11,145.55 L370.83,143.12 L374.55,140.71 L378.27,138.32 L381.99,135.95 L385.71,133.6 L389.43,131.27 L393.15,128.97 L396.87,126.68 L400.59,124.42 L404.31,122.18 L408.04,119.97 L411.76,117.78 L415.48,115.61 L419.2,113.46 L422.92,111.34" fill-opacity="0" stroke="#00BFC4" stroke-width="1" stroke-linejoin="round" stroke-miterlimit="10"/>
    <path d="M54.59,407.74 L58.31,404.91 L62.03,402.05 L65.75,399.16 L69.47,396.23 L73.2,393.28 L76.92,390.29 L80.64,387.28 L84.36,384.24 L88.08,381.16 L91.8,378.06 L95.52,374.93 L99.24,371.77 L102.96,368.58 L106.68,365.36 L110.4,362.12 L114.12,358.85 L117.84,355.55 L121.56,352.23 L125.28,348.89 L129,345.52 L132.72,342.12 L136.44,338.7 L140.16,335.26 L143.88,331.8 L147.6,328.32 L151.32,324.81 L155.05,321.28 L158.77,317.74 L162.49,314.18 L166.21,310.6 L169.93,307 L173.65,303.38 L177.37,299.75 L181.09,296.11 L184.81,292.45 L188.53,288.78 L192.25,285.09 L195.97,281.4 L199.69,277.69 L203.41,273.98 L207.13,270.25 L210.85,266.52 L214.57,262.78 L218.29,259.03 L222.01,255.28 L225.73,251.53 L229.45,247.77 L233.17,244.01 L236.89,240.25 L240.62,236.49 L244.34,232.73 L248.06,228.97 L251.78,225.21 L255.5,221.45 L259.22,217.7 L262.94,213.96 L266.66,210.22 L270.38,206.49 L274.1,202.76 L277.82,199.05 L281.54,195.34 L285.26,191.64 L288.98,187.96 L292.7,184.29 L296.42,180.63 L300.14,176.98 L303.86,173.35 L307.58,169.74 L311.3,166.14 L315.02,162.56 L318.74,159 L322.47,155.45 L326.19,151.93 L329.91,148.42 L333.63,144.94 L337.35,141.47 L341.07,138.03 L344.79,134.61 L348.51,131.22 L352.23,127.85 L355.95,124.5 L359.67,121.18 L363.39,117.89 L367.11,114.62 L370.83,111.37 L374.55,108.16 L378.27,104.97 L381.99,101.81 L385.71,98.68 L389.43,95.57 L393.15,92.5 L396.87,89.46 L400.59,86.44 L404.31,83.46 L408.04,80.5 L411.76,77.58 L415.48,74.69 L419.2,71.82 L422.92,68.99" fill-opacity="0" stroke="#619CFF" stroke-width="1" stroke-linejoin="round" stroke-miterlimit="10"/>
    <path d="M54.59,450.09 L58.31,446.55 L62.03,442.97 L65.75,439.35 L69.47,435.7 L73.2,432.01 L76.92,428.28 L80.64,424.51 L84.36,420.7 L88.08,416.86 L91.8,412.98 L95.52,409.07 L99.24,405.12 L102.96,401.13 L106.68,397.11 L110.4,393.06 L114.12,388.97 L117.84,384.85 L121.56,380.7 L125.28,376.52 L129,372.3 L132.72,368.06 L136.44,363.79 L140.16,359.49 L143.88,355.16 L147.6,350.8 L151.32,346.42 L155.05,342.01 L158.77,337.58 L162.49,333.13 L166.21,328.65 L169.93,324.15 L173.65,319.64 L177.37,315.1 L181.09,310.54 L184.81,305.97 L188.53,301.38 L192.25,296.77 L195.97,292.15 L199.69,287.52 L203.41,282.88 L207.13,278.22 L210.85,273.56 L214.57,268.88 L218.29,264.2 L222.01,259.51 L225.73,254.82 L229.45,250.12 L233.17,245.42 L236.89,240.72 L240.62,236.02 L244.34,231.31 L248.06,226.61 L251.78,221.92 L255.5,217.22 L259.22,212.54 L262.94,207.85 L266.66,203.18 L270.38,198.51 L274.1,193.86 L277.82,189.21 L281.54,184.58 L285.26,179.96 L288.98,175.36 L292.7,170.77 L296.42,166.19 L300.14,161.64 L303.86,157.1 L307.58,152.58 L311.3,148.08 L315.02,143.61 L318.74,139.15 L322.47,134.72 L326.19,130.32 L329.91,125.93 L333.63,121.58 L337.35,117.25 L341.07,112.95 L344.79,108.68 L348.51,104.43 L352.23,100.22 L355.95,96.04 L359.67,91.89 L363.39,87.77 L367.11,83.68 L370.83,79.63 L374.55,75.61 L378.27,71.62 L381.99,67.67 L385.71,63.75 L389.43,59.88 L393.15,56.03 L396.87,52.23 L400.59,48.46 L404.31,44.73 L408.04,41.04 L411.76,37.38 L415.48,33.77 L419.2,30.19 L422.92,26.65" fill-opacity="0" stroke="#F564E3" stroke-width="1" stroke-linejoin="round" stroke-miterlimit="10"/>
    <path d="M36.18,471.26 L36.18,5.48" fill-opacity="0" stroke="#000000" stroke-width="1" stroke-linejoin="round" stroke-miterlimit="10"/>
    <g clip-path="url(#Clip_1)">
      <text transform="matrix(1, 0, 0, 1, 25.347, 407.83)">
        <tspan x="-6.617" y="2.5" font-family="ArialMT" font-size="8.8" fill="#4D4D4D">0.3</tspan>
      </text>
    </g>
    <g clip-path="url(#Clip_2)">
      <text transform="matrix(1, 0, 0, 1, 25.347, 323.46)">
        <tspan x="-6.617" y="2.5" font-family="ArialMT" font-size="8.8" fill="#4D4D4D">0.4</tspan>
      </text>
    </g>
    <g clip-path="url(#Clip_3)">
      <text transform="matrix(1, 0, 0, 1, 25.347, 239.09)">
        <tspan x="-6.617" y="2.5" font-family="ArialMT" font-size="8.8" fill="#4D4D4D">0.5</tspan>
      </text>
    </g>
    <g clip-path="url(#Clip_4)">
      <text transform="matrix(1, 0, 0, 1, 25.347, 154.72)">
        <tspan x="-6.617" y="2.5" font-family="ArialMT" font-size="8.8" fill="#4D4D4D">0.6</tspan>
      </text>
    </g>
    <g clip-path="url(#Clip_5)">
      <text transform="matrix(1, 0, 0, 1, 25.347, 70.35)">
        <tspan x="-6.617" y="2.5" font-family="ArialMT" font-size="8.8" fill="#4D4D4D">0.7</tspan>
      </text>
    </g>
    <path d="M33.44,407.11 L36.18,407.11" fill-opacity="0" stroke="#333333" stroke-width="1" stroke-linejoin="round" stroke-miterlimit="10"/>
    <path d="M33.44,322.74 L36.18,322.74" fill-opacity="0" stroke="#333333" stroke-width="1" stroke-linejoin="round" stroke-miterlimit="10"/>
    <path d="M33.44,238.37 L36.18,238.37" fill-opacity="0" stroke="#333333" stroke-width="1" stroke-linejoin="round" stroke-miterlimit="10"/>
    <path d="M33.44,154 L36.18,154" fill-opacity="0" stroke="#333333" stroke-width="1" stroke-linejoin="round" stroke-miterlimit="10"/>
    <path d="M33.44,69.63 L36.18,69.63" fill-opacity="0" stroke="#333333" stroke-width="1" stroke-linejoin="round" stroke-miterlimit="10"/>
    <path d="M36.18,471.26 L441.33,471.26" fill-opacity="0" stroke="#000000" stroke-width="1" stroke-linejoin="round" stroke-miterlimit="10"/>
    <path d="M115.98,474 L115.98,471.26" fill-opacity="0" stroke="#333333" stroke-width="1" stroke-linejoin="round" stroke-miterlimit="10"/>
    <path d="M238.76,474 L238.76,471.26" fill-opacity="0" stroke="#333333" stroke-width="1" stroke-linejoin="round" stroke-miterlimit="10"/>
    <path d="M361.53,474 L361.53,471.26" fill-opacity="0" stroke="#333333" stroke-width="1" stroke-linejoin="round" stroke-miterlimit="10"/>
    <g clip-path="url(#Clip_6)">
      <text transform="matrix(1, 0, 0, 1, 116.392, 480.13)">
        <tspan x="-4.412" y="2.5" font-family="ArialMT" font-size="8.8" fill="#4D4D4D">-2</tspan>
      </text>
    </g>
    <g clip-path="url(#Clip_7)">
      <text transform="matrix(1, 0, 0, 1, 239.197, 480.13)">
        <tspan x="-2.947" y="2.5" font-family="ArialMT" font-size="8.8" fill="#4D4D4D">0</tspan>
      </text>
    </g>
    <g clip-path="url(#Clip_8)">
      <text transform="matrix(1, 0, 0, 1, 361.977, 480.13)">
        <tspan x="-2.947" y="2.5" font-family="ArialMT" font-size="8.8" fill="#4D4D4D">2</tspan>
      </text>
    </g>
    <g clip-path="url(#Clip_9)">
      <text transform="matrix(0, -1, 1, 0, 10.35, 237.864)">
        <tspan x="-65.316" y="3" font-family="ArialMT" font-size="11" fill="#000000">Probability of choosing red</tspan>
      </text>
    </g>
    <g>
      <path d="M504,0 L1008,0 L1008,504 L504,504 z" fill="#FFFFFF"/>
      <path d="M504,0 L1008,0 L1008,504 L504,504 z" fill-opacity="0" stroke="#FFFFFF" stroke-width="1" stroke-linecap="round" stroke-linejoin="round" stroke-miterlimit="10"/>
    </g>
    <path d="M945.33,5.48 L945.33,471.26 L545.18,471.26 L545.18,5.48 L945.33,5.48 z" fill="#FFFFFF"/>
    <path d="M563.37,238.37 L567.05,238.37 L570.72,238.37 L574.39,238.37 L578.07,238.37 L581.74,238.37 L585.42,238.37 L589.09,238.37 L592.77,238.37 L596.44,238.37 L600.12,238.37 L603.79,238.37 L607.46,238.37 L611.14,238.37 L614.81,238.37 L618.49,238.37 L622.16,238.37 L625.84,238.37 L629.51,238.37 L633.19,238.37 L636.86,238.37 L640.54,238.37 L644.21,238.37 L647.88,238.37 L651.56,238.37 L655.23,238.37 L658.91,238.37 L662.58,238.37 L666.26,238.37 L669.93,238.37 L673.61,238.37 L677.28,238.37 L680.95,238.37 L684.63,238.37 L688.3,238.37 L691.98,238.37 L695.65,238.37 L699.33,238.37 L703,238.37 L706.68,238.37 L710.35,238.37 L714.02,238.37 L717.7,238.37 L721.37,238.37 L725.05,238.37 L728.72,238.37 L732.4,238.37 L736.07,238.37 L739.75,238.37 L743.42,238.37 L747.1,238.37 L750.77,238.37 L754.44,238.37 L758.12,238.37 L761.79,238.37 L765.47,238.37 L769.14,238.37 L772.82,238.37 L776.49,238.37 L780.17,238.37 L783.84,238.37 L787.51,238.37 L791.19,238.37 L794.86,238.37 L798.54,238.37 L802.21,238.37 L805.89,238.37 L809.56,238.37 L813.24,238.37 L816.91,238.37 L820.58,238.37 L824.26,238.37 L827.93,238.37 L831.61,238.37 L835.28,238.37 L838.96,238.37 L842.63,238.37 L846.31,238.37 L849.98,238.37 L853.65,238.37 L857.33,238.37 L861,238.37 L864.68,238.37 L868.35,238.37 L872.03,238.37 L875.7,238.37 L879.38,238.37 L883.05,238.37 L886.73,238.37 L890.4,238.37 L894.07,238.37 L897.75,238.37 L901.42,238.37 L905.1,238.37 L908.77,238.37 L912.45,238.37 L916.12,238.37 L919.8,238.37 L923.47,238.37 L927.14,238.37" fill-opacity="0" stroke="#F8766D" stroke-width="1" stroke-linejoin="round" stroke-miterlimit="10"/>
    <path d="M563.37,280.71 L567.05,280.45 L570.72,280.17 L574.39,279.88 L578.07,279.57 L581.74,279.24 L585.42,278.9 L589.09,278.53 L592.77,278.15 L596.44,277.75 L600.12,277.32 L603.79,276.88 L607.46,276.41 L611.14,275.92 L614.81,275.4 L618.49,274.86 L622.16,274.29 L625.84,273.69 L629.51,273.07 L633.19,272.42 L636.86,271.74 L640.54,271.03 L644.21,270.28 L647.88,269.51 L651.56,268.71 L655.23,267.87 L658.91,267 L662.58,266.1 L666.26,265.16 L669.93,264.19 L673.61,263.19 L677.28,262.15 L680.95,261.09 L684.63,259.99 L688.3,258.86 L691.98,257.7 L695.65,256.51 L699.33,255.29 L703,254.04 L706.68,252.77 L710.35,251.48 L714.02,250.16 L717.7,248.82 L721.37,247.47 L725.05,246.09 L728.72,244.71 L732.4,243.31 L736.07,241.91 L739.75,240.49 L743.42,239.08 L747.1,237.66 L750.77,236.24 L754.44,234.83 L758.12,233.43 L761.79,232.03 L765.47,230.64 L769.14,229.27 L772.82,227.92 L776.49,226.58 L780.17,225.26 L783.84,223.97 L787.51,222.7 L791.19,221.45 L794.86,220.23 L798.54,219.04 L802.21,217.88 L805.89,216.75 L809.56,215.65 L813.24,214.58 L816.91,213.55 L820.58,212.55 L824.26,211.58 L827.93,210.64 L831.61,209.74 L835.28,208.87 L838.96,208.03 L842.63,207.22 L846.31,206.45 L849.98,205.71 L853.65,205 L857.33,204.32 L861,203.66 L864.68,203.04 L868.35,202.45 L872.03,201.88 L875.7,201.34 L879.38,200.82 L883.05,200.33 L886.73,199.86 L890.4,199.41 L894.07,198.99 L897.75,198.59 L901.42,198.2 L905.1,197.84 L908.77,197.5 L912.45,197.17 L916.12,196.86 L919.8,196.57 L923.47,196.29 L927.14,196.02" fill-opacity="0" stroke="#B79F00" stroke-width="1" stroke-linejoin="round" stroke-miterlimit="10"/>
    <path d="M563.37,323.05 L567.05,322.53 L570.72,321.97 L574.39,321.39 L578.07,320.77 L581.74,320.11 L585.42,319.42 L589.09,318.7 L592.77,317.93 L596.44,317.13 L600.12,316.28 L603.79,315.39 L607.46,314.45 L611.14,313.47 L614.81,312.43 L618.49,311.35 L622.16,310.21 L625.84,309.02 L629.51,307.78 L633.19,306.47 L636.86,305.11 L640.54,303.69 L644.21,302.2 L647.88,300.65 L651.56,299.04 L655.23,297.37 L658.91,295.63 L662.58,293.82 L666.26,291.95 L669.93,290.01 L673.61,288.01 L677.28,285.94 L680.95,283.8 L684.63,281.6 L688.3,279.34 L691.98,277.02 L695.65,274.64 L699.33,272.2 L703,269.71 L706.68,267.17 L710.35,264.58 L714.02,261.95 L717.7,259.27 L721.37,256.56 L725.05,253.82 L728.72,251.05 L732.4,248.25 L736.07,245.44 L739.75,242.62 L743.42,239.79 L747.1,236.95 L750.77,234.12 L754.44,231.29 L758.12,228.48 L761.79,225.69 L765.47,222.92 L769.14,220.17 L772.82,217.46 L776.49,214.79 L780.17,212.15 L783.84,209.56 L787.51,207.02 L791.19,204.53 L794.86,202.09 L798.54,199.71 L802.21,197.39 L805.89,195.13 L809.56,192.93 L813.24,190.8 L816.91,188.73 L820.58,186.73 L824.26,184.79 L827.93,182.91 L831.61,181.11 L835.28,179.37 L838.96,177.69 L842.63,176.08 L846.31,174.53 L849.98,173.05 L853.65,171.63 L857.33,170.27 L861,168.96 L864.68,167.71 L868.35,166.52 L872.03,165.39 L875.7,164.3 L879.38,163.27 L883.05,162.29 L886.73,161.35 L890.4,160.46 L894.07,159.61 L897.75,158.8 L901.42,158.04 L905.1,157.31 L908.77,156.62 L912.45,155.97 L916.12,155.35 L919.8,154.76 L923.47,154.21 L927.14,153.68" fill-opacity="0" stroke="#00BA38" stroke-width="1" stroke-linejoin="round" stroke-miterlimit="10"/>
    <path d="M563.37,365.4 L567.05,364.61 L570.72,363.77 L574.39,362.89 L578.07,361.96 L581.74,360.98 L585.42,359.95 L589.09,358.86 L592.77,357.71 L596.44,356.51 L600.12,355.23 L603.79,353.9 L607.46,352.49 L611.14,351.02 L614.81,349.47 L618.49,347.84 L622.16,346.13 L625.84,344.35 L629.51,342.48 L633.19,340.52 L636.86,338.48 L640.54,336.34 L644.21,334.12 L647.88,331.8 L651.56,329.38 L655.23,326.87 L658.91,324.26 L662.58,321.55 L666.26,318.74 L669.93,315.83 L673.61,312.83 L677.28,309.72 L680.95,306.52 L684.63,303.22 L688.3,299.83 L691.98,296.35 L695.65,292.78 L699.33,289.12 L703,285.39 L706.68,281.57 L710.35,277.69 L714.02,273.74 L717.7,269.73 L721.37,265.66 L725.05,261.54 L728.72,257.39 L732.4,253.2 L736.07,248.98 L739.75,244.74 L743.42,240.49 L747.1,236.24 L750.77,231.99 L754.44,227.76 L758.12,223.54 L761.79,219.35 L765.47,215.19 L769.14,211.08 L772.82,207.01 L776.49,203 L780.17,199.05 L783.84,195.16 L787.51,191.35 L791.19,187.61 L794.86,183.96 L798.54,180.39 L802.21,176.9 L805.89,173.51 L809.56,170.22 L813.24,167.01 L816.91,163.91 L820.58,160.9 L824.26,158 L827.93,155.19 L831.61,152.48 L835.28,149.87 L838.96,147.35 L842.63,144.94 L846.31,142.62 L849.98,140.39 L853.65,138.26 L857.33,136.21 L861,134.26 L864.68,132.39 L868.35,130.6 L872.03,128.9 L875.7,127.27 L879.38,125.72 L883.05,124.24 L886.73,122.84 L890.4,121.5 L894.07,120.23 L897.75,119.02 L901.42,117.87 L905.1,116.79 L908.77,115.75 L912.45,114.77 L916.12,113.84 L919.8,112.96 L923.47,112.13 L927.14,111.34" fill-opacity="0" stroke="#00BFC4" stroke-width="1" stroke-linejoin="round" stroke-miterlimit="10"/>
    <path d="M563.37,407.74 L567.05,406.69 L570.72,405.58 L574.39,404.4 L578.07,403.16 L581.74,401.86 L585.42,400.48 L589.09,399.03 L592.77,397.5 L596.44,395.89 L600.12,394.19 L603.79,392.41 L607.46,390.53 L611.14,388.56 L614.81,386.5 L618.49,384.33 L622.16,382.06 L625.84,379.68 L629.51,377.18 L633.19,374.57 L636.86,371.85 L640.54,369 L644.21,366.03 L647.88,362.94 L651.56,359.72 L655.23,356.37 L658.91,352.89 L662.58,349.28 L666.26,345.53 L669.93,341.65 L673.61,337.65 L677.28,333.51 L680.95,329.24 L684.63,324.84 L688.3,320.32 L691.98,315.68 L695.65,310.92 L699.33,306.04 L703,301.06 L706.68,295.98 L710.35,290.8 L714.02,285.53 L717.7,280.18 L721.37,274.76 L725.05,269.27 L728.72,263.73 L732.4,258.14 L736.07,252.52 L739.75,246.87 L743.42,241.2 L747.1,235.53 L750.77,229.87 L754.44,224.22 L758.12,218.6 L761.79,213.01 L765.47,207.47 L769.14,201.98 L772.82,196.56 L776.49,191.21 L780.17,185.94 L783.84,180.76 L787.51,175.68 L791.19,170.69 L794.86,165.82 L798.54,161.06 L802.21,156.42 L805.89,151.9 L809.56,147.5 L813.24,143.23 L816.91,139.09 L820.58,135.08 L824.26,131.21 L827.93,127.46 L831.61,123.85 L835.28,120.37 L838.96,117.02 L842.63,113.8 L846.31,110.7 L849.98,107.73 L853.65,104.89 L857.33,102.16 L861,99.55 L864.68,97.06 L868.35,94.68 L872.03,92.41 L875.7,90.24 L879.38,88.17 L883.05,86.2 L886.73,84.33 L890.4,82.55 L894.07,80.85 L897.75,79.24 L901.42,77.71 L905.1,76.26 L908.77,74.88 L912.45,73.57 L916.12,72.33 L919.8,71.16 L923.47,70.05 L927.14,68.99" fill-opacity="0" stroke="#619CFF" stroke-width="1" stroke-linejoin="round" stroke-miterlimit="10"/>
    <path d="M563.37,450.09 L567.05,448.77 L570.72,447.38 L574.39,445.91 L578.07,444.36 L581.74,442.73 L585.42,441.01 L589.09,439.19 L592.77,437.28 L596.44,435.26 L600.12,433.15 L603.79,430.92 L607.46,428.57 L611.14,426.11 L614.81,423.53 L618.49,420.82 L622.16,417.98 L625.84,415 L629.51,411.89 L633.19,408.63 L636.86,405.22 L640.54,401.66 L644.21,397.95 L647.88,394.08 L651.56,390.06 L655.23,385.87 L658.91,381.52 L662.58,377 L666.26,372.32 L669.93,367.48 L673.61,362.47 L677.28,357.29 L680.95,351.95 L684.63,346.46 L688.3,340.81 L691.98,335 L695.65,329.05 L699.33,322.96 L703,316.73 L706.68,310.38 L710.35,303.9 L714.02,297.32 L717.7,290.63 L721.37,283.85 L725.05,276.99 L728.72,270.07 L732.4,263.08 L736.07,256.05 L739.75,248.99 L743.42,241.91 L747.1,234.82 L750.77,227.74 L754.44,220.68 L758.12,213.65 L761.79,206.67 L765.47,199.74 L769.14,192.88 L772.82,186.11 L776.49,179.42 L780.17,172.83 L783.84,166.36 L787.51,160 L791.19,153.78 L794.86,147.68 L798.54,141.73 L802.21,135.93 L805.89,130.28 L809.56,124.78 L813.24,119.45 L816.91,114.27 L820.58,109.26 L824.26,104.41 L827.93,99.73 L831.61,95.22 L835.28,90.87 L838.96,86.68 L842.63,82.65 L846.31,78.78 L849.98,75.07 L853.65,71.52 L857.33,68.11 L861,64.85 L864.68,61.73 L868.35,58.76 L872.03,55.92 L875.7,53.21 L879.38,50.62 L883.05,48.16 L886.73,45.82 L890.4,43.59 L894.07,41.47 L897.75,39.46 L901.42,37.55 L905.1,35.73 L908.77,34.01 L912.45,32.37 L916.12,30.83 L919.8,29.36 L923.47,27.97 L927.14,26.65" fill-opacity="0" stroke="#F564E3" stroke-width="1" stroke-linejoin="round" stroke-miterlimit="10"/>
    <path d="M545.18,471.26 L545.18,5.48" fill-opacity="0" stroke="#000000" stroke-width="1" stroke-linejoin="round" stroke-miterlimit="10"/>
    <g clip-path="url(#Clip_10)">
      <text transform="matrix(1, 0, 0, 1, 531.794, 356.04)">
        <tspan x="-9.064" y="2.5" font-family="ArialMT" font-size="8.8" fill="#4D4D4D">0.25</tspan>
      </text>
    </g>
    <g clip-path="url(#Clip_11)">
      <text transform="matrix(1, 0, 0, 1, 531.794, 239.09)">
        <tspan x="-9.064" y="2.5" font-family="ArialMT" font-size="8.8" fill="#4D4D4D">0.50</tspan>
      </text>
    </g>
    <g clip-path="url(#Clip_12)">
      <text transform="matrix(1, 0, 0, 1, 531.794, 122.14)">
        <tspan x="-9.064" y="2.5" font-family="ArialMT" font-size="8.8" fill="#4D4D4D">0.75</tspan>
      </text>
    </g>
    <path d="M542.44,355.32 L545.18,355.32" fill-opacity="0" stroke="#333333" stroke-width="1" stroke-linejoin="round" stroke-miterlimit="10"/>
    <path d="M542.44,238.37 L545.18,238.37" fill-opacity="0" stroke="#333333" stroke-width="1" stroke-linejoin="round" stroke-miterlimit="10"/>
    <path d="M542.44,121.42 L545.18,121.42" fill-opacity="0" stroke="#333333" stroke-width="1" stroke-linejoin="round" stroke-miterlimit="10"/>
    <path d="M545.18,471.26 L945.33,471.26" fill-opacity="0" stroke="#000000" stroke-width="1" stroke-linejoin="round" stroke-miterlimit="10"/>
    <path d="M624,474 L624,471.26" fill-opacity="0" stroke="#333333" stroke-width="1" stroke-linejoin="round" stroke-miterlimit="10"/>
    <path d="M745.26,474 L745.26,471.26" fill-opacity="0" stroke="#333333" stroke-width="1" stroke-linejoin="round" stroke-miterlimit="10"/>
    <path d="M866.52,474 L866.52,471.26" fill-opacity="0" stroke="#333333" stroke-width="1" stroke-linejoin="round" stroke-miterlimit="10"/>
    <g clip-path="url(#Clip_13)">
      <text transform="matrix(1, 0, 0, 1, 624.412, 480.13)">
        <tspan x="-4.412" y="2.5" font-family="ArialMT" font-size="8.8" fill="#4D4D4D">-2</tspan>
      </text>
    </g>
    <g clip-path="url(#Clip_14)">
      <text transform="matrix(1, 0, 0, 1, 745.707, 480.13)">
        <tspan x="-2.947" y="2.5" font-family="ArialMT" font-size="8.8" fill="#4D4D4D">0</tspan>
      </text>
    </g>
    <g clip-path="url(#Clip_15)">
      <text transform="matrix(1, 0, 0, 1, 866.957, 480.13)">
        <tspan x="-2.947" y="2.5" font-family="ArialMT" font-size="8.8" fill="#4D4D4D">2</tspan>
      </text>
    </g>
    <g clip-path="url(#Clip_16)">
      <text transform="matrix(1, 0, 0, 1, 749.802, 499.785)">
        <tspan x="-102.022" y="0.096" font-family="Arial-BoldMT" font-size="14" fill="#000000">Evidence for red (in log odds)</tspan>
      </text>
    </g>
    <path d="M956.29,173.04 L1002.52,173.04 L1002.52,303.7 L956.29,303.7 z" fill="#FFFFFF"/>
    <g>
      <path d="M1008,0 L1512,0 L1512,504 L1008,504 z" fill="#FFFFFF"/>
      <path d="M1008,0 L1512,0 L1512,504 L1008,504 z" fill-opacity="0" stroke="#FFFFFF" stroke-width="1" stroke-linecap="round" stroke-linejoin="round" stroke-miterlimit="10"/>
    </g>
    <path d="M1449.33,5.48 L1449.33,471.26 L1049.18,471.26 L1049.18,5.48 L1449.33,5.48 z" fill="#FFFFFF"/>
    <path d="M1067.37,238.37 L1071.05,238.37 L1074.72,238.37 L1078.39,238.37 L1082.07,238.37 L1085.74,238.37 L1089.42,238.37 L1093.09,238.37 L1096.77,238.37 L1100.44,238.37 L1104.12,238.37 L1107.79,238.37 L1111.46,238.37 L1115.14,238.37 L1118.81,238.37 L1122.49,238.37 L1126.16,238.37 L1129.84,238.37 L1133.51,238.37 L1137.19,238.37 L1140.86,238.37 L1144.54,238.37 L1148.21,238.37 L1151.88,238.37 L1155.56,238.37 L1159.23,238.37 L1162.91,238.37 L1166.58,238.37 L1170.26,238.37 L1173.93,238.37 L1177.61,238.37 L1181.28,238.37 L1184.95,238.37 L1188.63,238.37 L1192.3,238.37 L1195.98,238.37 L1199.65,238.37 L1203.33,238.37 L1207,238.37 L1210.68,238.37 L1214.35,238.37 L1218.02,238.37 L1221.7,238.37 L1225.37,238.37 L1229.05,238.37 L1232.72,238.37 L1236.4,238.37 L1240.07,238.37 L1243.75,238.37 L1247.42,238.37 L1251.1,238.37 L1254.77,238.37 L1258.44,238.37 L1262.12,238.37 L1265.79,238.37 L1269.47,238.37 L1273.14,238.37 L1276.82,238.37 L1280.49,238.37 L1284.17,238.37 L1287.84,238.37 L1291.51,238.37 L1295.19,238.37 L1298.86,238.37 L1302.54,238.37 L1306.21,238.37 L1309.89,238.37 L1313.56,238.37 L1317.24,238.37 L1320.91,238.37 L1324.58,238.37 L1328.26,238.37 L1331.93,238.37 L1335.61,238.37 L1339.28,238.37 L1342.96,238.37 L1346.63,238.37 L1350.31,238.37 L1353.98,238.37 L1357.65,238.37 L1361.33,238.37 L1365,238.37 L1368.68,238.37 L1372.35,238.37 L1376.03,238.37 L1379.7,238.37 L1383.38,238.37 L1387.05,238.37 L1390.73,238.37 L1394.4,238.37 L1398.07,238.37 L1401.75,238.37 L1405.42,238.37 L1409.1,238.37 L1412.77,238.37 L1416.45,238.37 L1420.12,238.37 L1423.8,238.37 L1427.47,238.37 L1431.14,238.37" fill-opacity="0" stroke="#F8766D" stroke-width="1" stroke-linejoin="round" stroke-miterlimit="10"/>
    <path d="M1067.37,280.71 L1071.05,280.71 L1074.72,280.7 L1078.39,280.7 L1082.07,280.69 L1085.74,280.68 L1089.42,280.67 L1093.09,280.66 L1096.77,280.65 L1100.44,280.63 L1104.12,280.61 L1107.79,280.59 L1111.46,280.56 L1115.14,280.53 L1118.81,280.49 L1122.49,280.45 L1126.16,280.4 L1129.84,280.34 L1133.51,280.27 L1137.19,280.18 L1140.86,280.08 L1144.54,279.97 L1148.21,279.83 L1151.88,279.67 L1155.56,279.49 L1159.23,279.27 L1162.91,279.01 L1166.58,278.7 L1170.26,278.35 L1173.93,277.94 L1177.61,277.46 L1181.28,276.9 L1184.95,276.24 L1188.63,275.49 L1192.3,274.62 L1195.98,273.62 L1199.65,272.46 L1203.33,271.15 L1207,269.66 L1210.68,267.97 L1214.35,266.08 L1218.02,263.98 L1221.7,261.65 L1225.37,259.11 L1229.05,256.35 L1232.72,253.39 L1236.4,250.26 L1240.07,246.97 L1243.75,243.58 L1247.42,240.11 L1251.1,236.62 L1254.77,233.16 L1258.44,229.76 L1262.12,226.48 L1265.79,223.35 L1269.47,220.39 L1273.14,217.63 L1276.82,215.08 L1280.49,212.76 L1284.17,210.65 L1287.84,208.76 L1291.51,207.08 L1295.19,205.59 L1298.86,204.27 L1302.54,203.12 L1306.21,202.12 L1309.89,201.25 L1313.56,200.49 L1317.24,199.84 L1320.91,199.28 L1324.58,198.8 L1328.26,198.38 L1331.93,198.03 L1335.61,197.73 L1339.28,197.47 L1342.96,197.25 L1346.63,197.06 L1350.31,196.9 L1353.98,196.77 L1357.65,196.65 L1361.33,196.55 L1365,196.47 L1368.68,196.4 L1372.35,196.34 L1376.03,196.29 L1379.7,196.24 L1383.38,196.21 L1387.05,196.18 L1390.73,196.15 L1394.4,196.13 L1398.07,196.11 L1401.75,196.09 L1405.42,196.08 L1409.1,196.07 L1412.77,196.06 L1416.45,196.05 L1420.12,196.04 L1423.8,196.03 L1427.47,196.03 L1431.14,196.02" fill-opacity="0" stroke="#B79F00" stroke-width="1" stroke-linejoin="round" stroke-miterlimit="10"/>
    <path d="M1067.37,323.05 L1071.05,323.05 L1074.72,323.04 L1078.39,323.02 L1082.07,323.01 L1085.74,322.99 L1089.42,322.97 L1093.09,322.95 L1096.77,322.92 L1100.44,322.89 L1104.12,322.85 L1107.79,322.81 L1111.46,322.75 L1115.14,322.69 L1118.81,322.62 L1122.49,322.53 L1126.16,322.43 L1129.84,322.31 L1133.51,322.16 L1137.19,322 L1140.86,321.8 L1144.54,321.57 L1148.21,321.3 L1151.88,320.98 L1155.56,320.6 L1159.23,320.16 L1162.91,319.65 L1166.58,319.04 L1170.26,318.33 L1173.93,317.51 L1177.61,316.55 L1181.28,315.42 L1184.95,314.12 L1188.63,312.61 L1192.3,310.87 L1195.98,308.86 L1199.65,306.56 L1203.33,303.93 L1207,300.95 L1210.68,297.58 L1214.35,293.8 L1218.02,289.59 L1221.7,284.94 L1225.37,279.85 L1229.05,274.33 L1232.72,268.41 L1236.4,262.14 L1240.07,255.58 L1243.75,248.78 L1247.42,241.86 L1251.1,234.88 L1254.77,227.95 L1258.44,221.16 L1262.12,214.59 L1265.79,208.32 L1269.47,202.41 L1273.14,196.89 L1276.82,191.8 L1280.49,187.15 L1284.17,182.94 L1287.84,179.16 L1291.51,175.79 L1295.19,172.8 L1298.86,170.17 L1302.54,167.87 L1306.21,165.87 L1309.89,164.12 L1313.56,162.61 L1317.24,161.31 L1320.91,160.19 L1324.58,159.23 L1328.26,158.4 L1331.93,157.69 L1335.61,157.09 L1339.28,156.57 L1342.96,156.13 L1346.63,155.76 L1350.31,155.44 L1353.98,155.17 L1357.65,154.94 L1361.33,154.74 L1365,154.57 L1368.68,154.43 L1372.35,154.31 L1376.03,154.21 L1379.7,154.12 L1383.38,154.05 L1387.05,153.98 L1390.73,153.93 L1394.4,153.89 L1398.07,153.85 L1401.75,153.81 L1405.42,153.79 L1409.1,153.76 L1412.77,153.74 L1416.45,153.73 L1420.12,153.71 L1423.8,153.7 L1427.47,153.69 L1431.14,153.68" fill-opacity="0" stroke="#00BA38" stroke-width="1" stroke-linejoin="round" stroke-miterlimit="10"/>
    <path d="M1067.37,365.4 L1071.05,365.39 L1074.72,365.37 L1078.39,365.35 L1082.07,365.33 L1085.74,365.3 L1089.42,365.28 L1093.09,365.24 L1096.77,365.2 L1100.44,365.15 L1104.12,365.09 L1107.79,365.02 L1111.46,364.95 L1115.14,364.85 L1118.81,364.74 L1122.49,364.61 L1126.16,364.46 L1129.84,364.28 L1133.51,364.06 L1137.19,363.81 L1140.86,363.52 L1144.54,363.17 L1148.21,362.76 L1151.88,362.28 L1155.56,361.72 L1159.23,361.06 L1162.91,360.28 L1166.58,359.38 L1170.26,358.32 L1173.93,357.08 L1177.61,355.63 L1181.28,353.95 L1184.95,352 L1188.63,349.74 L1192.3,347.12 L1195.98,344.11 L1199.65,340.66 L1203.33,336.72 L1207,332.24 L1210.68,327.19 L1214.35,321.51 L1218.02,315.2 L1221.7,308.22 L1225.37,300.59 L1229.05,292.31 L1232.72,283.44 L1236.4,274.03 L1240.07,264.18 L1243.75,253.99 L1247.42,243.6 L1251.1,233.14 L1254.77,222.74 L1258.44,212.56 L1262.12,202.71 L1265.79,193.3 L1269.47,184.43 L1273.14,176.15 L1276.82,168.51 L1280.49,161.54 L1284.17,155.22 L1287.84,149.55 L1291.51,144.5 L1295.19,140.02 L1298.86,136.08 L1302.54,132.63 L1306.21,129.62 L1309.89,127 L1313.56,124.74 L1317.24,122.78 L1320.91,121.1 L1324.58,119.66 L1328.26,118.42 L1331.93,117.36 L1335.61,116.45 L1339.28,115.68 L1342.96,115.02 L1346.63,114.45 L1350.31,113.97 L1353.98,113.57 L1357.65,113.22 L1361.33,112.93 L1365,112.67 L1368.68,112.46 L1372.35,112.28 L1376.03,112.13 L1379.7,112 L1383.38,111.89 L1387.05,111.79 L1390.73,111.71 L1394.4,111.64 L1398.07,111.59 L1401.75,111.54 L1405.42,111.5 L1409.1,111.46 L1412.77,111.43 L1416.45,111.41 L1420.12,111.38 L1423.8,111.37 L1427.47,111.35 L1431.14,111.34" fill-opacity="0" stroke="#00BFC4" stroke-width="1" stroke-linejoin="round" stroke-miterlimit="10"/>
    <path d="M1067.37,407.74 L1071.05,407.72 L1074.72,407.7 L1078.39,407.68 L1082.07,407.65 L1085.74,407.62 L1089.42,407.58 L1093.09,407.53 L1096.77,407.48 L1100.44,407.41 L1104.12,407.33 L1107.79,407.24 L1111.46,407.14 L1115.14,407.01 L1118.81,406.86 L1122.49,406.69 L1126.16,406.49 L1129.84,406.24 L1133.51,405.96 L1137.19,405.63 L1140.86,405.23 L1144.54,404.77 L1148.21,404.23 L1151.88,403.59 L1155.56,402.84 L1159.23,401.96 L1162.91,400.92 L1166.58,399.72 L1170.26,398.3 L1173.93,396.65 L1177.61,394.72 L1181.28,392.48 L1184.95,389.88 L1188.63,386.86 L1192.3,383.37 L1195.98,379.36 L1199.65,374.75 L1203.33,369.5 L1207,363.53 L1210.68,356.79 L1214.35,349.23 L1218.02,340.81 L1221.7,331.51 L1225.37,321.33 L1229.05,310.29 L1232.72,298.46 L1236.4,285.92 L1240.07,272.78 L1243.75,259.2 L1247.42,245.34 L1251.1,231.39 L1254.77,217.53 L1258.44,203.95 L1262.12,190.82 L1265.79,178.28 L1269.47,166.44 L1273.14,155.41 L1276.82,145.23 L1280.49,135.93 L1284.17,127.51 L1287.84,119.95 L1291.51,113.21 L1295.19,107.24 L1298.86,101.98 L1302.54,97.38 L1306.21,93.37 L1309.89,89.88 L1313.56,86.86 L1317.24,84.26 L1320.91,82.01 L1324.58,80.09 L1328.26,78.44 L1331.93,77.02 L1335.61,75.81 L1339.28,74.78 L1342.96,73.9 L1346.63,73.15 L1350.31,72.51 L1353.98,71.97 L1357.65,71.5 L1361.33,71.11 L1365,70.78 L1368.68,70.49 L1372.35,70.25 L1376.03,70.05 L1379.7,69.87 L1383.38,69.72 L1387.05,69.6 L1390.73,69.49 L1394.4,69.4 L1398.07,69.33 L1401.75,69.26 L1405.42,69.21 L1409.1,69.16 L1412.77,69.12 L1416.45,69.09 L1420.12,69.06 L1423.8,69.03 L1427.47,69.01 L1431.14,68.99" fill-opacity="0" stroke="#619CFF" stroke-width="1" stroke-linejoin="round" stroke-miterlimit="10"/>
    <path d="M1067.37,450.09 L1071.05,450.06 L1074.72,450.04 L1078.39,450.01 L1082.07,449.97 L1085.74,449.93 L1089.42,449.88 L1093.09,449.82 L1096.77,449.75 L1100.44,449.67 L1104.12,449.58 L1107.79,449.46 L1111.46,449.33 L1115.14,449.17 L1118.81,448.99 L1122.49,448.77 L1126.16,448.51 L1129.84,448.21 L1133.51,447.86 L1137.19,447.44 L1140.86,446.95 L1144.54,446.37 L1148.21,445.69 L1151.88,444.89 L1155.56,443.95 L1159.23,442.85 L1162.91,441.56 L1166.58,440.05 L1170.26,438.28 L1173.93,436.22 L1177.61,433.81 L1181.28,431.01 L1184.95,427.75 L1188.63,423.98 L1192.3,419.62 L1195.98,414.6 L1199.65,408.85 L1203.33,402.28 L1207,394.82 L1210.68,386.4 L1214.35,376.94 L1218.02,366.42 L1221.7,354.79 L1225.37,342.07 L1229.05,328.27 L1232.72,313.48 L1236.4,297.8 L1240.07,281.39 L1243.75,264.41 L1247.42,247.09 L1251.1,229.65 L1254.77,212.33 L1258.44,195.35 L1262.12,178.93 L1265.79,163.25 L1269.47,148.46 L1273.14,134.67 L1276.82,121.94 L1280.49,110.32 L1284.17,99.79 L1287.84,90.34 L1291.51,81.91 L1295.19,74.45 L1298.86,67.89 L1302.54,62.13 L1306.21,57.11 L1309.89,52.76 L1313.56,48.98 L1317.24,45.73 L1320.91,42.92 L1324.58,40.52 L1328.26,38.45 L1331.93,36.68 L1335.61,35.17 L1339.28,33.88 L1342.96,32.78 L1346.63,31.84 L1350.31,31.05 L1353.98,30.37 L1357.65,29.79 L1361.33,29.3 L1365,28.88 L1368.68,28.52 L1372.35,28.22 L1376.03,27.97 L1379.7,27.75 L1383.38,27.56 L1387.05,27.41 L1390.73,27.27 L1394.4,27.16 L1398.07,27.07 L1401.75,26.98 L1405.42,26.91 L1409.1,26.86 L1412.77,26.81 L1416.45,26.76 L1420.12,26.73 L1423.8,26.7 L1427.47,26.67 L1431.14,26.65" fill-opacity="0" stroke="#F564E3" stroke-width="1" stroke-linejoin="round" stroke-miterlimit="10"/>
    <path d="M1049.18,471.26 L1049.18,5.48" fill-opacity="0" stroke="#000000" stroke-width="1" stroke-linejoin="round" stroke-miterlimit="10"/>
    <g clip-path="url(#Clip_17)">
      <text transform="matrix(1, 0, 0, 1, 1035.794, 450.93)">
        <tspan x="-9.064" y="2.5" font-family="ArialMT" font-size="8.8" fill="#4D4D4D">0.00</tspan>
      </text>
    </g>
    <g clip-path="url(#Clip_18)">
      <text transform="matrix(1, 0, 0, 1, 1035.794, 345.01)">
        <tspan x="-9.064" y="2.5" font-family="ArialMT" font-size="8.8" fill="#4D4D4D">0.25</tspan>
      </text>
    </g>
    <g clip-path="url(#Clip_19)">
      <text transform="matrix(1, 0, 0, 1, 1035.794, 239.09)">
        <tspan x="-9.064" y="2.5" font-family="ArialMT" font-size="8.8" fill="#4D4D4D">0.50</tspan>
      </text>
    </g>
    <g clip-path="url(#Clip_20)">
      <text transform="matrix(1, 0, 0, 1, 1035.794, 133.17)">
        <tspan x="-9.064" y="2.5" font-family="ArialMT" font-size="8.8" fill="#4D4D4D">0.75</tspan>
      </text>
    </g>
    <g clip-path="url(#Clip_21)">
      <text transform="matrix(1, 0, 0, 1, 1035.794, 27.25)">
        <tspan x="-9.064" y="2.5" font-family="ArialMT" font-size="8.8" fill="#4D4D4D">1.00</tspan>
      </text>
    </g>
    <path d="M1046.44,450.21 L1049.18,450.21" fill-opacity="0" stroke="#333333" stroke-width="1" stroke-linejoin="round" stroke-miterlimit="10"/>
    <path d="M1046.44,344.29 L1049.18,344.29" fill-opacity="0" stroke="#333333" stroke-width="1" stroke-linejoin="round" stroke-miterlimit="10"/>
    <path d="M1046.44,238.37 L1049.18,238.37" fill-opacity="0" stroke="#333333" stroke-width="1" stroke-linejoin="round" stroke-miterlimit="10"/>
    <path d="M1046.44,132.45 L1049.18,132.45" fill-opacity="0" stroke="#333333" stroke-width="1" stroke-linejoin="round" stroke-miterlimit="10"/>
    <path d="M1046.44,26.53 L1049.18,26.53" fill-opacity="0" stroke="#333333" stroke-width="1" stroke-linejoin="round" stroke-miterlimit="10"/>
    <path d="M1049.18,471.26 L1449.33,471.26" fill-opacity="0" stroke="#000000" stroke-width="1" stroke-linejoin="round" stroke-miterlimit="10"/>
    <path d="M1128,474 L1128,471.26" fill-opacity="0" stroke="#333333" stroke-width="1" stroke-linejoin="round" stroke-miterlimit="10"/>
    <path d="M1249.26,474 L1249.26,471.26" fill-opacity="0" stroke="#333333" stroke-width="1" stroke-linejoin="round" stroke-miterlimit="10"/>
    <path d="M1370.52,474 L1370.52,471.26" fill-opacity="0" stroke="#333333" stroke-width="1" stroke-linejoin="round" stroke-miterlimit="10"/>
    <g clip-path="url(#Clip_22)">
      <text transform="matrix(1, 0, 0, 1, 1128.412, 480.13)">
        <tspan x="-4.412" y="2.5" font-family="ArialMT" font-size="8.8" fill="#4D4D4D">-2</tspan>
      </text>
    </g>
    <g clip-path="url(#Clip_23)">
      <text transform="matrix(1, 0, 0, 1, 1249.707, 480.13)">
        <tspan x="-2.947" y="2.5" font-family="ArialMT" font-size="8.8" fill="#4D4D4D">0</tspan>
      </text>
    </g>
    <g clip-path="url(#Clip_24)">
      <text transform="matrix(1, 0, 0, 1, 1370.957, 480.13)">
        <tspan x="-2.947" y="2.5" font-family="ArialMT" font-size="8.8" fill="#4D4D4D">2</tspan>
      </text>
    </g>
    <g clip-path="url(#Clip_25)"/>
    <path d="M1460.29,173.04 L1506.52,173.04 L1506.52,303.7 L1460.29,303.7 z" fill="#FFFFFF"/>
    <g clip-path="url(#Clip_26)">
      <text transform="matrix(1, 0, 0, 1, 1418.755, 322.74)">
        <tspan x="-30.575" y="3" font-family="ArialMT" font-size="11" fill="#000000">weight value</tspan>
      </text>
    </g>
    <path d="M1391.5,343.18 L1405.32,343.18" fill-opacity="0" stroke="#F8766D" stroke-width="1" stroke-linejoin="round" stroke-miterlimit="10"/>
    <path d="M1391.5,360.46 L1405.32,360.46" fill-opacity="0" stroke="#B79F00" stroke-width="1" stroke-linejoin="round" stroke-miterlimit="10"/>
    <path d="M1391.5,377.74 L1405.32,377.74" fill-opacity="0" stroke="#00BA38" stroke-width="1" stroke-linejoin="round" stroke-miterlimit="10"/>
    <path d="M1391.5,395.02 L1405.32,395.02" fill-opacity="0" stroke="#00BFC4" stroke-width="1" stroke-linejoin="round" stroke-miterlimit="10"/>
    <path d="M1391.5,412.3 L1405.32,412.3" fill-opacity="0" stroke="#619CFF" stroke-width="1" stroke-linejoin="round" stroke-miterlimit="10"/>
    <path d="M1391.5,429.58 L1405.32,429.58" fill-opacity="0" stroke="#F564E3" stroke-width="1" stroke-linejoin="round" stroke-miterlimit="10"/>
    <g clip-path="url(#Clip_27)">
      <text transform="matrix(1, 0, 0, 1, 1419.147, 343.9)">
        <tspan x="-6.617" y="2.5" font-family="ArialMT" font-size="8.8" fill="#000000">0.5</tspan>
      </text>
    </g>
    <g clip-path="url(#Clip_28)">
      <text transform="matrix(1, 0, 0, 1, 1419.147, 361.18)">
        <tspan x="-6.617" y="2.5" font-family="ArialMT" font-size="8.8" fill="#000000">0.6</tspan>
      </text>
    </g>
    <g clip-path="url(#Clip_29)">
      <text transform="matrix(1, 0, 0, 1, 1419.147, 378.46)">
        <tspan x="-6.617" y="2.5" font-family="ArialMT" font-size="8.8" fill="#000000">0.7</tspan>
      </text>
    </g>
    <g clip-path="url(#Clip_30)">
      <text transform="matrix(1, 0, 0, 1, 1419.147, 395.74)">
        <tspan x="-6.617" y="2.5" font-family="ArialMT" font-size="8.8" fill="#000000">0.8</tspan>
      </text>
    </g>
    <g clip-path="url(#Clip_31)">
      <text transform="matrix(1, 0, 0, 1, 1419.147, 413.02)">
        <tspan x="-6.617" y="2.5" font-family="ArialMT" font-size="8.8" fill="#000000">0.9</tspan>
      </text>
    </g>
    <g clip-path="url(#Clip_32)">
      <text transform="matrix(1, 0, 0, 1, 1415.477, 431.3)">
        <tspan x="-2.947" y="2.5" font-family="ArialMT" font-size="8.8" fill="#000000">1</tspan>
      </text>
    </g>
    <text transform="matrix(1, 0, 0, 1, 129.689, 13.93)">
      <tspan x="-58.55" y="4.5" font-family="Arial-BoldMT" font-size="14" fill="#000000">Loop value = 0.37</tspan>
    </text>
    <text transform="matrix(1, 0, 0, 1, 611.801, 14.906)">
      <tspan x="-48.819" y="4.5" font-family="Arial-BoldMT" font-size="14" fill="#000000">Loop value = 1</tspan>
    </text>
    <text transform="matrix(1, 0, 0, 1, 1131.478, 22.906)">
      <tspan x="-54.657" y="-3.5" font-family="Arial-BoldMT" font-size="14" fill="#000000">Loop value = 2.7</tspan>
    </text>
  </g>
</svg>
